<?xml version="1.0" encoding="iso-8859-1"?>
<!-- Uploaded to: SVG Repo, www.svgrepo.com, Generator: SVG Repo Mixer Tools -->
<svg version="1.1" id="Layer_1" xmlns="http://www.w3.org/2000/svg" xmlns:xlink="http://www.w3.org/1999/xlink" 
	 viewBox="0 0 512 512" xml:space="preserve">
<rect x="7.61" y="136.689" style="fill:#E0E0E2;" width="496.782" height="353.422"/>
<rect x="39.371" y="170.957" style="fill:#2732D9;" width="433.253" height="68.943"/>
<rect x="39.371" y="269.809" style="fill:#9CDD03;" width="179.788" height="186.044"/>
<path style="fill:#FED322;" d="M472.629,382.866v-37.375h-22.648c-1.992-8.356-5.289-16.205-9.665-23.32l16.018-16.018
	l-26.428-26.428l-16.019,16.019c-7.115-4.377-14.964-7.674-23.32-9.665v-22.648h-37.375v22.648
	c-8.356,1.992-16.205,5.289-23.32,9.665l-16.019-16.019l-26.428,26.428l16.019,16.018c-4.377,7.115-7.674,14.964-9.665,23.32
	h-22.648v37.375h22.648c1.992,8.356,5.289,16.205,9.665,23.32l-16.019,16.018l26.428,26.428l16.019-16.019
	c7.115,4.377,14.964,7.674,23.32,9.665v22.648h37.375v-22.648c8.356-1.992,16.205-5.289,23.32-9.665l16.019,16.019l26.428-26.428
	l-16.018-16.018c4.377-7.115,7.674-14.964,9.665-23.32L472.629,382.866L472.629,382.866z"/>
<circle style="fill:#CBA400;" cx="371.884" cy="364.179" r="38.058"/>
<circle style="fill:#FFFFFF;" cx="371.884" cy="364.179" r="15.463"/>
<polygon style="fill:#ACABB1;" points="191.079,76.548 166.645,21.889 7.61,21.889 7.61,136.689 504.396,136.689 504.396,76.548 "/>
<polygon style="fill:#3E3D43;" points="166.645,21.889 504.396,21.889 504.396,76.548 191.079,76.548 "/>
<g>
	<rect x="351.303" y="41.619" style="fill:#FFFFFF;" width="34.978" height="15.208"/>
	<rect x="400.729" y="41.619" style="fill:#FFFFFF;" width="34.978" height="15.208"/>
	<rect x="450.154" y="41.619" style="fill:#FFFFFF;" width="34.978" height="15.208"/>
	<rect x="65.394" y="301.522" style="fill:#FFFFFF;" width="72.998" height="15.208"/>
	<rect x="65.394" y="334.899" style="fill:#FFFFFF;" width="34.134" height="15.208"/>
	<rect x="312.127" y="197.825" style="fill:#FFFFFF;" width="131.062" height="15.208"/>
	<rect x="267.152" y="197.825" style="fill:#FFFFFF;" width="27.374" height="15.208"/>
</g>
<g>
	<rect x="46.522" y="99.865" style="fill:#010101;" width="399.461" height="15.208"/>
	<path style="fill:#010101;" d="M171.576,14.285h-16.659H0.006v114.8H0l0.006,361.026v7.604H512V144.293v-15.208V84.152V68.944
		V14.285H171.576z M496.792,482.507H15.214V144.293h481.578V482.507z M496.792,129.085H15.214V29.493h146.501l24.434,54.658h310.643
		V129.085z M196.009,68.944l-17.635-39.45h318.418v39.45H196.009z"/>
	<path style="fill:#010101;" d="M480.233,163.348H31.767v84.15h448.464v-84.15H480.233z M465.025,232.291H46.975v-53.735h418.049
		v53.735H465.025z"/>
	<path style="fill:#010101;" d="M226.767,262.2h-195v201.251h194.999V262.2H226.767z M211.559,448.243H46.975V277.408h164.583
		v170.836H211.559z"/>
	<path style="fill:#010101;" d="M449.786,323.452l17.301-17.299l-37.181-37.182l-17.301,17.301
		c-4.627-2.424-9.454-4.425-14.433-5.983v-24.462h-52.583v24.462c-4.98,1.558-9.806,3.56-14.433,5.983l-17.301-17.301
		l-37.181,37.182l17.301,17.299c-2.424,4.628-4.424,9.453-5.983,14.433h-24.462v52.583h24.462c1.558,4.98,3.559,9.805,5.983,14.433
		l-17.301,17.3l37.181,37.182l17.301-17.301c4.627,2.424,9.454,4.424,14.433,5.983v24.462h52.583v-24.462
		c4.98-1.558,9.805-3.56,14.433-5.983l17.301,17.301l37.181-37.182l-17.301-17.3c2.424-4.627,4.424-9.453,5.983-14.433h24.462
		v-52.583h-24.462C454.211,332.905,452.212,328.08,449.786,323.452z M465.025,375.262h-21.048l-1.393,5.841
		c-1.778,7.457-4.721,14.555-8.746,21.099l-3.147,5.115l14.889,14.888l-15.674,15.675l-14.888-14.889l-5.115,3.146
		c-6.545,4.026-13.645,6.968-21.099,8.746l-5.841,1.393v21.048h-22.167v-21.048l-5.841-1.393c-7.456-1.777-14.554-4.72-21.099-8.746
		l-5.114-3.146l-14.889,14.889l-15.674-15.675l14.888-14.888l-3.146-5.115c-4.025-6.544-6.968-13.644-8.746-21.099l-1.393-5.841
		h-21.048v-22.167h21.048l1.393-5.841c1.777-7.456,4.721-14.554,8.746-21.099l3.146-5.115l-14.888-14.888l15.674-15.675
		l14.889,14.889l5.114-3.146c6.545-4.026,13.645-6.968,21.099-8.746l5.841-1.393v-21.048h22.167v21.048l5.841,1.393
		c7.456,1.777,14.554,4.72,21.099,8.746l5.114,3.146l14.888-14.889l15.674,15.675l-14.889,14.888l3.147,5.115
		c4.026,6.544,6.968,13.643,8.746,21.099l1.392,5.841h21.048v22.167H465.025z"/>
	<path style="fill:#010101;" d="M417.543,364.177c0-25.178-20.484-45.662-45.662-45.662s-45.662,20.484-45.662,45.662
		c0,25.179,20.484,45.663,45.662,45.663S417.543,389.356,417.543,364.177z M341.426,364.177c0-16.793,13.662-30.454,30.454-30.454
		s30.454,13.662,30.454,30.454s-13.662,30.455-30.454,30.455S341.426,380.971,341.426,364.177z"/>
	<path style="fill:#010101;" d="M394.948,364.177c0-12.72-10.348-23.067-23.067-23.067s-23.067,10.347-23.067,23.067
		c0,12.72,10.348,23.068,23.067,23.068C384.6,387.245,394.948,376.897,394.948,364.177z M364.021,364.177
		c0-4.333,3.526-7.859,7.859-7.859c4.334,0,7.859,3.526,7.859,7.859c0,4.334-3.526,7.86-7.859,7.86
		C367.546,372.037,364.021,368.512,364.021,364.177z"/>
	<path style="fill:#010101;" d="M371.88,415.337v15.208c36.595,0,66.367-29.772,66.367-66.367H423.04
		C423.04,392.387,400.09,415.337,371.88,415.337z"/>
	<path style="fill:#010101;" d="M371.88,313.018V297.81c-36.595,0-66.367,29.772-66.367,66.368h15.208
		C320.721,335.968,343.671,313.018,371.88,313.018z"/>
</g>
</svg>